<?xml version="1.0" encoding="UTF-8"?>
<!DOCTYPE svg PUBLIC "-//W3C//DTD SVG 1.1//EN" "http://www.w3.org/Graphics/SVG/1.1/DTD/svg11.dtd">
<!-- Creator: CorelDRAW X7 -->
<svg xmlns="http://www.w3.org/2000/svg" xml:space="preserve" width="2.95276in" height="4.13386in" version="1.1" style="shape-rendering:geometricPrecision; text-rendering:geometricPrecision; image-rendering:optimizeQuality; fill-rule:evenodd; clip-rule:evenodd"
viewBox="0 0 2953 4134"
 xmlns:xlink="http://www.w3.org/1999/xlink">
 <defs>
  <style type="text/css">
   <![CDATA[
    .fil0 {fill:#f9d573;fill-opacity:0.949020}
    .fil1 {fill:#FADC88;fill-opacity:0.949020}
   ]]>
  </style>
 </defs>
 <g id="Layer_x0020_1">
  <metadata id="CorelCorpID_0Corel-Layer"/>
  <g id="_788588248">
   <path id="path48" class="fil0" d="M1477 606l-1 0 0 -1 1 0 0 1zm0 348l-1 0 0 -1c0,1 1,1 1,1l0 0zm233 357c-33,-34 -59,-68 -79,-103 0,0 -1,-1 -1,-1 -2,-3 -5,-6 -7,-9l0 0c0,-1 0,-2 0,-3 -154,-282 76,-582 87,-596 0,0 0,-1 0,-1l0 0c263,-459 966,-256 966,-256 -245,686 -765,519 -765,519 5,-222 404,-505 404,-505 -323,85 -484,244 -564,383 -83,143 -81,266 -81,266 54,17 105,30 153,40 950,196 1071,-823 1071,-823 -1013,-484 -1399,343 -1417,383 -17,-35 -403,-869 -1418,-383 0,0 121,1019 1070,823 49,-10 100,-23 153,-40 0,0 3,-123 -80,-266 -81,-139 -242,-298 -564,-383 0,0 398,283 403,505 0,0 -519,167 -765,-519 0,0 704,-203 966,256l0 0c0,0 0,1 1,1 11,14 240,314 87,596 0,1 0,2 -1,3l0 0c-2,3 -4,6 -6,9 0,0 -1,1 -1,1 -20,35 -46,69 -80,103 -224,278 -542,602 -717,821 -261,324 -267,713 -267,713 0,673 545,1218 1218,1219l0 -339c-489,-1 -887,-393 -896,-880 -1,-6 -1,-11 -1,-17 0,0 5,-287 197,-526 192,-239 614,-648 700,-866l0 -1 1 0 0 1c85,218 508,627 700,866 192,239 197,526 197,526 0,6 0,11 -1,17 -9,487 -407,879 -896,880l0 339c673,-1 1218,-546 1218,-1219 0,0 -6,-389 -267,-713 -176,-219 -493,-543 -718,-821z"/>
   <g>
    <path id="path46" class="fil0" d="M1476 3517c0,0 636,-295 718,-677 0,0 -9,786 -718,677z"/>
    <path id="path52" class="fil1" d="M1322 1208c-20,35 -46,69 -80,103 29,-36 55,-70 80,-103z"/>
    <polygon id="path56" class="fil1" points="1477,1435 1477,1436 1476,1436 1476,1435 "/>
    <polygon id="path58" class="fil1" points="1477,606 1476,606 1476,605 1477,605 "/>
    <path id="path62" class="fil1" d="M1477 954l0 0 -1 0 0 -1c0,1 1,1 1,1z"/>
    <path id="path66" class="fil1" d="M1477 954l0 0 -1 0 0 -1c0,1 1,1 1,1z"/>
    <path id="path70" class="fil1" d="M1322 1208c-20,35 -46,69 -80,103 29,-36 55,-70 80,-103z"/>
    <polygon id="path74" class="fil1" points="1477,1435 1477,1436 1476,1436 1476,1435 "/>
    <path id="path78" class="fil1" d="M1477 954l0 0 -1 0 0 -1c0,1 1,1 1,1z"/>
    <path id="path82" class="fil1" d="M1710 1311c-33,-34 -59,-68 -79,-103 25,33 51,67 79,103z"/>
    <polygon id="path86" class="fil1" points="1477,1435 1477,1436 1476,1436 1476,1435 "/>
    <polygon id="path88" class="fil1" points="1477,606 1476,606 1476,605 1477,605 "/>
    <path id="path92" class="fil1" d="M1477 954l0 0 -1 0 0 -1c0,1 1,1 1,1z"/>
    <path id="path96" class="fil1" d="M1477 954l0 0 -1 0 0 -1c0,1 1,1 1,1z"/>
    <path id="path100" class="fil1" d="M1710 1311c-33,-34 -59,-68 -79,-103 25,33 51,67 79,103z"/>
   </g>
  </g>
 </g>
</svg>
